<svg width="21" height="22" viewBox="0 0 21 22" fill="none" xmlns="http://www.w3.org/2000/svg">
<path d="M20.16 0.600006H0.84C0.375375 0.600006 0 0.973594 0 1.43601V20.664C0 21.1264 0.375375 21.5 0.84 21.5H20.16C20.6246 21.5 21 21.1264 21 20.664V1.43601C21 0.973594 20.6246 0.600006 20.16 0.600006ZM19.32 19.828H14.4874V13.4065H17.2174L17.6269 10.2532H14.4874V8.23896C14.4874 7.32458 14.742 6.70281 16.0571 6.70281H17.7345V3.88131C17.4431 3.84212 16.4482 3.75591 15.288 3.75591C12.8678 3.75591 11.2114 5.22674 11.2114 7.92546V10.2506H8.47612V13.4039H11.214V19.828H1.68V2.27201H19.32V19.828Z" fill="white"/>
</svg>
