<svg width="54" height="42" viewBox="0 0 54 42" fill="none" xmlns="http://www.w3.org/2000/svg">
<path d="M53.4475 1.08967C53.434 0.868359 53.3399 0.659673 53.1829 0.503105C53.0259 0.346536 52.8169 0.252949 52.5956 0.240056C41.2108 -0.439631 32.1053 2.98146 28.2356 9.36826C25.5984 13.7228 25.7049 18.8658 28.5165 23.9158C26.5323 26.0955 25.2221 28.8033 24.7443 31.7119L19.4223 26.3899C21.3776 22.7649 21.4183 19.0651 19.5175 15.925C16.7036 11.2782 10.1106 8.79506 1.87506 9.27764C1.65489 9.29154 1.44735 9.38527 1.29135 9.54127C1.13535 9.69726 1.04162 9.90481 1.02772 10.125C0.545139 18.356 3.02826 24.949 7.67506 27.7629C9.16644 28.6784 10.8823 29.1631 12.6322 29.163C14.5639 29.1302 16.4569 28.6162 18.14 27.6677L24.5313 34.0658V40.9375C24.5313 41.1778 24.6268 41.4083 24.7967 41.5783C24.9667 41.7482 25.1972 41.8437 25.4376 41.8437C25.6779 41.8437 25.9084 41.7482 26.0784 41.5783C26.2483 41.4083 26.3438 41.1778 26.3438 40.9375V34.2561C26.3353 30.9104 27.5698 27.6807 29.8079 25.1936C32.4112 26.6346 35.0347 27.3596 37.5654 27.3596C39.9494 27.36 42.287 26.7005 44.3193 25.4542C50.7038 21.5822 54.1181 12.4767 53.4475 1.08967ZM8.61303 26.2109C4.7003 23.8456 2.55475 18.211 2.79944 11.0494C9.96108 10.8047 15.5957 12.9502 17.961 16.8629C19.4291 19.2894 19.454 22.1577 18.0652 25.0396L11.5765 18.5463C11.4041 18.3901 11.1782 18.3062 10.9457 18.3119C10.7131 18.3176 10.4916 18.4126 10.3271 18.5771C10.1627 18.7416 10.0677 18.963 10.062 19.1956C10.0563 19.4281 10.1402 19.654 10.2964 19.8264L16.7919 26.3219C13.9078 27.7108 11.0395 27.6858 8.61303 26.2109ZM43.379 23.9C39.7427 26.1022 35.429 26.0727 31.1265 23.8433L44.2037 10.7639C44.3667 10.5927 44.4563 10.3646 44.4535 10.1283C44.4507 9.89198 44.3556 9.66611 44.1887 9.49885C44.0217 9.33158 43.796 9.23616 43.5597 9.23293C43.3234 9.2297 43.0951 9.31891 42.9237 9.48154L29.8442 22.561C27.6148 18.2563 27.5786 13.9516 29.7876 10.3085C33.2109 4.64443 41.3604 1.57904 51.6803 2.00724C52.1108 12.3272 49.034 20.4766 43.379 23.9Z" fill="black"/>
</svg>
