<svg width="22" height="21" viewBox="0 0 22 21" fill="none" xmlns="http://www.w3.org/2000/svg">
<path d="M21.2344 1.70001L21.9678 1.65161C21.9583 1.50764 21.9065 1.36968 21.8189 1.255C21.7314 1.14031 21.6119 1.05401 21.4756 1.00688C21.3392 0.959754 21.192 0.953903 21.0523 0.990058C20.9126 1.02621 20.7867 1.10277 20.6903 1.21014L21.2344 1.70001ZM20.504 6.03988C20.504 5.84538 20.4268 5.65886 20.2893 5.52133C20.1517 5.3838 19.9652 5.30654 19.7707 5.30654C19.5762 5.30654 19.3897 5.3838 19.2522 5.52133C19.1146 5.65886 19.0374 5.84538 19.0374 6.03988H20.504ZM0.733378 17.8333V17.1C0.575915 17.0998 0.422572 17.1503 0.296033 17.244C0.169494 17.3377 0.0764805 17.4697 0.0307512 17.6204C-0.014978 17.771 -0.0109936 17.9324 0.0421149 18.0807C0.0952234 18.2289 0.194635 18.3561 0.325644 18.4435L0.733378 17.8333ZM2.19711 1.70001L2.88498 1.44334C2.83499 1.30945 2.74697 1.19308 2.63173 1.10854C2.51649 1.024 2.37906 0.974976 2.23633 0.967497C2.09361 0.960018 1.95181 0.994408 1.82837 1.06644C1.70492 1.13847 1.60522 1.245 1.54151 1.37294L2.19711 1.70001ZM8.05498 14.9L8.57418 15.4177C8.66227 15.3294 8.72635 15.22 8.76037 15.0999C8.79438 14.9799 8.79721 14.8532 8.76857 14.7317C8.73994 14.6103 8.68079 14.4982 8.59673 14.4059C8.51266 14.3137 8.40646 14.2445 8.28818 14.2048L8.05498 14.9ZM18.6502 3.12707L18.1075 3.61987L18.3715 3.91174L18.7602 3.85307L18.6502 3.12707ZM20.504 1.74841C20.5788 2.88947 20.5084 3.58174 20.3236 4.10387C20.1447 4.60987 19.8308 5.02641 19.2632 5.57054L20.2782 6.62948C20.9206 6.01347 21.4163 5.40921 21.7067 4.59374C21.9898 3.79294 22.0484 2.86601 21.9678 1.65161L20.504 1.74841ZM20.504 7.10761V6.03988H19.0374V7.10908H20.504V7.10761ZM10.252 6.16014V7.56668H11.7187V6.16014H10.252ZM10.252 7.56668V8.30001H11.7187V7.56668H10.252ZM15.4367 0.966675C14.7551 0.96706 14.0802 1.1017 13.4506 1.3629C12.821 1.62411 12.249 2.00676 11.7673 2.48902C11.2856 2.97128 10.9036 3.5437 10.6431 4.17359C10.3826 4.80348 10.2487 5.47851 10.2491 6.16014H11.7158C11.7154 5.67099 11.8114 5.18656 11.9983 4.73452C12.1851 4.28247 12.4592 3.87168 12.8049 3.52559C13.1506 3.17951 13.5611 2.90492 14.0129 2.71751C14.4647 2.53009 14.949 2.43353 15.4382 2.43334V0.966675H15.4367ZM19.0359 7.10761C19.0374 13.4377 13.9143 18.5667 7.59738 18.5667V20.0333C14.7254 20.0333 20.504 14.2459 20.504 7.10761H19.0359ZM1.51071 1.95667C2.30858 4.08627 5.30058 8.30001 10.9854 8.30001V6.83334C6.12191 6.83334 3.55084 3.22534 2.88351 1.44334L1.51071 1.95667ZM1.54151 1.37294C0.00591078 4.44707 -0.230222 7.43027 0.885911 9.97054C1.99911 12.5035 4.39418 14.4512 7.82324 15.5952L8.28818 14.2048C5.12751 13.1488 3.12844 11.4299 2.22791 9.37948C1.33031 7.33641 1.46084 4.81814 2.85418 2.02707L1.54151 1.37294ZM7.53578 14.3823C6.65284 15.2667 3.99818 17.1 0.733378 17.1V18.5667C4.49684 18.5667 7.50498 16.4899 8.57418 15.4177L7.53578 14.3823ZM19.1943 2.63574C18.7201 2.10987 18.1407 1.68954 17.4936 1.40201C16.8466 1.11447 16.1463 0.966155 15.4382 0.966675V2.43334C16.4956 2.43334 17.4475 2.88947 18.1075 3.61987L19.1943 2.63574ZM18.7602 3.85307C19.9284 3.66221 20.9954 3.07489 21.7815 2.18987L20.6903 1.21014C20.1311 1.84189 19.3722 2.26277 18.5402 2.40254L18.7602 3.85307ZM0.325644 18.4435C2.73244 20.048 5.25511 20.0333 7.59738 20.0333V18.5667C5.20671 18.5667 3.12698 18.5505 1.14111 17.2232L0.325644 18.4435Z" fill="white"/>
</svg>
